inDegrees=yes
name=ik_S44_A11_T01
DataType=double
version=3
OpenSimVersion=4.3-2021-08-27-4bc7ad9
endheader
time	pelvis_tilt	pelvis_list	pelvis_rotation	pelvis_tx	pelvis_ty	pelvis_tz	hip_flexion_r	hip_adduction_r	hip_rotation_r	knee_angle_r	knee_angle_r_beta	ankle_angle_r	subtalar_angle_r	mtp_angle_r	hip_flexion_l	hip_adduction_l	hip_rotation_l	knee_angle_l	knee_angle_l_beta	ankle_angle_l	subtalar_angle_l	mtp_angle_l	lumbar_extension	lumbar_bending	lumbar_rotation	arm_flex_r	arm_add_r	arm_rot_r	elbow_flex_r	pro_sup_r	wrist_flex_r	wrist_dev_r	arm_flex_l	arm_add_l	arm_rot_l	elbow_flex_l	pro_sup_l	wrist_flex_l	wrist_dev_l
16.25999999999974	-0.06572349111567856	-0.07444191214246047	36.08631618147838	0	0.9399999999999999	0	37.92881019803666	-9.887662681596936	-9.623916635648106	43.82732807158806	0.7649311772009486	0	0	0	37.92881019803666	-9.887662681596936	-9.623916635648106	43.82732807158806	0.7649311772009486	0	0	0	0.1622180521443873	-0.1957424706839359	13.88657487598652	39.32128439508055	-20.73658539797345	2.200345665174995	9.758672830634517	86.64545014754908	0	0	0.2821213461076569	-1.971174682288744	-2.779168922934586	3.153881332961645	95.01454288551406	0	0
16.27999999999974	-0.09609747947892085	-0.05217167084058048	36.08346081699007	0	0.9399999999999999	0	37.93152729184735	-9.887811742558776	-9.624237038595977	43.83026992678906	0.764982522260323	0	0	0	37.93152729184735	-9.887811742558776	-9.624237038595977	43.83026992678906	0.764982522260323	0	0	0	0.1505892273087982	-0.1585959182366539	13.84491877775886	36.82942363998343	-20.68836092765348	2.422986716371206	9.5354331476951	87.88389355684008	0	0	0.2575525633011536	-1.940867411629598	-2.653374197745543	3.069867040427134	95.0135280491883	0	0
16.29999999999974	-0.1282705174023238	-0.0192080836827538	36.04382463780196	0	0.9399999999999999	0	37.93437018281153	-9.88796758758015	-9.624572164075225	43.83334770345934	0.7650362395968605	0	0	0	37.93437018281153	-9.88796758758015	-9.624572164075225	43.83334770345934	0.7650362395968605	0	0	0	0.1434424414621298	-0.1101427826344698	13.87462540897795	34.45588962102806	-20.6106724334436	2.199321343208966	8.946531785809842	89.10554613852318	0	0	0.2254198371008133	-1.901628267542214	-2.518478654504793	3.030308954333506	95.04320976243115	0	0
16.31999999999974	-0.1560386948649589	-0.02166446935783677	35.99626266959606	0	0.9399999999999999	0	37.93735245629696	-9.88813097340087	-9.624923639075735	43.83657550665148	0.7650925753901697	0	0	0	37.93735245629696	-9.88813097340087	-9.624923639075735	43.83657550665148	0.7650925753901697	0	0	0	0.1191654802276197	-0.09261991956611634	13.88465285005539	32.30537533096626	-20.35868466350642	1.876739364967104	7.916019001547585	90.7103633374266	0	0	0.2388215926474493	-1.916981549196267	-2.448888408834736	2.984967684616275	95.10448691686035	0	0
16.33999999999974	-0.2182934888521326	-0.0003531308577380929	35.92430976568989	0	0.9399999999999999	0	37.94023172503169	-9.888288570946504	-9.625262825071305	43.83969197603987	0.7651469680420347	0	0	0	37.94023172503169	-9.888288570946504	-9.625262825071305	43.83969197603987	0.7651469680420347	0	0	0	0.08103447982990296	-0.03736132138644468	13.75294275048331	30.21375930224524	-19.99050789239957	2.235449382305774	6.933473257483291	92.08143224167628	0	0	0.2454191097599006	-1.829436903596321	-2.545678592633938	2.923832784314248	95.12699715549634	0	0
16.35999999999974	-0.228519943345895	0.0221690882918291	35.91829791372612	0	0.9399999999999999	0	37.94327292375501	-9.888452809875611	-9.625617991024262	43.84302207286598	0.7652050891960606	0	0	0	37.94327292375501	-9.888452809875611	-9.625617991024262	43.84302207286598	0.7652050891960606	0	0	0	0.08531641223141817	-0.01115172204910344	13.77471653403713	30.16053199343487	-19.87827193712173	2.117658286067435	3.95937392468077	94.41611202241413	0	0	0.2175594711266026	-1.817975274965598	-2.341874095533234	2.883933504376253	95.04103448257396	0	0
16.37999999999974	-0.2562864805139672	0.05764045118166158	35.94184347957599	0	0.9399999999999999	0	37.94511822086914	-9.88855319818523	-9.625834565736882	43.84502775040998	0.7652400948729368	0	0	0	37.94511822086914	-9.88855319818523	-9.625834565736882	43.84502775040998	0.7652400948729368	0	0	0	0.08306508318394466	0.03458922653480069	13.63016999790963	27.76713695268383	-19.40054700491175	2.736946832150065	3.523553078706859	94.66593590630541	0	0	0.1953497408515536	-1.726066874851871	-2.331963898368981	2.781890041032592	94.95916215159062	0	0
16.39999999999974	-0.2632807264506385	0.06201898604850315	36.18355119331054	0	0.9399999999999999	0	38.04227017315623	-9.892145069538685	-9.634824547741653	43.98186599362911	0.7676283727597553	0	0	0	38.04227017315623	-9.892145069538685	-9.634824547741653	43.98186599362911	0.7676283727597553	0	0	0	0.07604234948609674	0.03877912044471486	13.29286533688083	23.35900778799785	-18.46754663090713	3.64808906745236	6.277233968246709	93.16640119653569	0	0	0.199267217032305	-1.731118232179432	-2.387619045818568	2.861184342986352	94.97045894968402	0	0
16.41999999999974	-0.2739897772305938	0.08975321586201399	36.10391697175002	0	0.9399999999999999	0	38.04530615033421	-9.89230616821621	-9.635175847795761	43.98518591635283	0.767686316342196	0	0	0	38.04530615033421	-9.89230616821621	-9.635175847795761	43.98518591635283	0.767686316342196	0	0	0	0.08307917313186892	0.07233689318916657	13.19145120418705	23.29313442690533	-18.10972417513959	3.719220330188999	2.585682047633991	95.63956444834828	0	0	0.1460456485103251	-1.707015583926341	-2.551913736484042	2.922850235281349	95.07470811293544	0	0
16.43999999999974	-0.2993407825549943	0.09702233109825648	36.23532461916695	0	0.9399999999999999	0	38.04941819607138	-9.892526767159993	-9.635655193547787	43.98963317421659	0.7677639356346039	0	0	0	38.04941819607138	-9.892526767159993	-9.635655193547787	43.98963317421659	0.7677639356346039	0	0	0	0.06723283147869856	0.09046727118076897	13.01965042424277	21.29191559276922	-17.56564870404038	4.650131280007442	3.461102949036452	94.76040736265094	0	0	0.1513304986536552	-1.695850628492369	-2.495916279804801	2.984760331574789	95.10014948145675	0	0
16.45999999999974	-0.3181370341467722	0.1295290834909763	36.16036404239971	0	0.9399999999999999	0	38.05319440478252	-9.892727979855238	-9.636093538419818	43.99373796570183	0.767835577761129	0	0	0	38.05319440478252	-9.892727979855238	-9.636093538419818	43.99373796570183	0.767835577761129	0	0	0	0.0716020881665605	0.1282698382916597	13.01216696964118	21.21610652027767	-17.33266511381769	4.6510300075851	1.484988986644438	95.78359266422407	0	0	0.1011979684078016	-1.626623338677319	-2.470897604688884	3.019327871917532	95.04473285421153	0	0
16.47999999999974	-0.3502953564857313	0.1058766396329146	36.462542164884	0	0.9399999999999999	0	38.13804038558806	-9.895805393945272	-9.643864318510097	44.11327980978255	0.7699219765342433	0	0	0	38.13804038558806	-9.895805393945272	-9.643864318510097	44.11327980978255	0.7699219765342433	0	0	0	0.02762661652870751	0.1250826247995366	12.58911030022183	17.13916400100781	-16.4194461065304	6.490062975360504	3.671128846643995	93.68031711036791	0	0	0.15704638904718	-1.633236391699429	-2.521302159192288	3.044469160501805	95.03575544022929	0	0
16.49999999999974	-0.3805431137295308	0.1067063783655191	36.51894002728162	0	0.9399999999999999	0	38.14265152088287	-9.896048160488943	-9.644396467951651	44.11827001671021	0.7700090720754869	0	0	0	38.14265152088287	-9.896048160488943	-9.644396467951651	44.11827001671021	0.7700090720754869	0	0	0	0.003462132783243969	0.1429880868239089	12.39519482908831	15.47975327148699	-15.53754553320798	7.015858333842316	2.452765051714732	95.29247425854007	0	0	0.1594655357353236	-1.632507706668492	-2.594102830506303	3.04068062744044	95.10927406014514	0	0
16.51999999999974	-0.4162589738994781	0.1268429941917603	36.83628737157439	0	0.9399999999999999	0	38.22364329293411	-9.898938660424687	-9.65175032939948	44.23234760202773	0.7720001015420024	0	0	0	38.22364329293411	-9.898938660424687	-9.65175032939948	44.23234760202773	0.7720001015420024	0	0	0	-0.0240991844600505	0.1917857450521778	11.95235131812159	12.5103152062259	-14.59153089883891	9.229703553539609	4.539840664833291	93.18984154808835	0	0	0.1209825028217913	-1.575079025757622	-2.501440434354834	3.06293568415258	95.06783946065427	0	0
16.53999999999974	-0.4854475377388643	0.1465436330602851	36.72212496603616	0	0.9399999999999999	0	38.22724987578492	-9.899123472294423	-9.652160027530437	44.2362897600901	0.7720689051798247	0	0	0	38.22724987578492	-9.899123472294423	-9.652160027530437	44.2362897600901	0.7720689051798247	0	0	0	-0.06718223615625031	0.2511219538377684	11.89465100638772	12.48093356741275	-14.35817740308731	9.33089261874567	2.506262997287229	95.51671512944236	0	0	0.155056496166651	-1.473956203328183	-2.409436662003696	3.033695292834889	94.97451140126036	0	0
16.55999999999974	-0.5508317855867503	0.1712265335750717	36.67557729889884	0	0.9399999999999999	0	38.23034087060501	-9.899282737854371	-9.652512502955094	44.23964785568891	0.7721275150046206	0	0	0	38.23034087060501	-9.899282737854371	-9.652512502955094	44.23964785568891	0.7721275150046206	0	0	0	-0.1043627745757527	0.3097617911912733	11.70285058381402	11.06798717901485	-13.89469147514262	10.39620774568873	3.182282684064619	94.75836368660777	0	0	0.1733485252942029	-1.375654651124528	-2.396279563155694	2.989395428598739	94.92207381289563	0	0
